<svg width="6" height="6" viewBox="0 0 6 6" fill="none" xmlns="http://www.w3.org/2000/svg">
<path d="M4.13394 3.28135C4.13512 3.25802 4.13571 3.23455 4.13571 3.21094V2.56094C4.13571 1.82852 3.56343 1.22756 2.84243 1.18162C3.0086 1.01631 3.23749 0.914001 3.48979 0.914001H5.08163C5.58796 0.914001 6 1.32604 6 1.83237V2.36298C6 2.86931 5.58796 3.28135 5.08163 3.28135H4.97959V3.79155C4.97959 3.83277 4.95469 3.87011 4.91653 3.88583C4.90408 3.89114 4.89061 3.89359 4.87754 3.89359C4.85102 3.89359 4.82489 3.88318 4.8053 3.86379L4.22306 3.28135H4.13394Z" fill="url(#paint0_linear_20429_36820)"/>
<path fill-rule="evenodd" clip-rule="evenodd" d="M3.87857 3.21095C3.87857 3.8312 3.37382 4.33595 2.75357 4.33595L2.17675 4.33595L1.46351 5.04945C1.43951 5.0732 1.4075 5.08595 1.37501 5.08595C1.359 5.08595 1.3425 5.08295 1.32725 5.07645C1.28051 5.05719 1.25 5.01144 1.25 4.96095V4.33595H1.125C0.50475 4.33595 0 3.8312 0 3.21095V2.56095C0 1.9407 0.50475 1.43595 1.125 1.43595L2.75357 1.43595C3.37382 1.43595 3.87857 1.9407 3.87857 2.56095V3.21095ZM1.90381 1.9873C1.91149 1.94842 1.96709 1.94842 1.97477 1.9873L2.05083 2.3722C2.09259 2.58354 2.2607 2.74703 2.47312 2.78289L2.87343 2.85048C2.91363 2.85727 2.91363 2.91502 2.87343 2.92181L2.47312 2.9894C2.2607 3.02526 2.09259 3.18876 2.05083 3.4001L1.97477 3.78499C1.96709 3.82387 1.91149 3.82387 1.90381 3.78499L1.82775 3.4001C1.78599 3.18876 1.61788 3.02526 1.40546 2.9894L1.00515 2.92181C0.964956 2.91502 0.964956 2.85727 1.00515 2.85048L1.40546 2.78289C1.61788 2.74703 1.78599 2.58354 1.82775 2.3722L1.90381 1.9873Z" fill="url(#paint1_linear_20429_36820)"/>
<defs>
<linearGradient id="paint0_linear_20429_36820" x1="3" y1="0.914001" x2="3" y2="8.11061" gradientUnits="userSpaceOnUse">
<stop stop-color="#FA527A"/>
<stop offset="1" stop-color="#F80741"/>
</linearGradient>
<linearGradient id="paint1_linear_20429_36820" x1="3" y1="0.914001" x2="3" y2="8.11061" gradientUnits="userSpaceOnUse">
<stop stop-color="#FA527A"/>
<stop offset="1" stop-color="#F80741"/>
</linearGradient>
</defs>
</svg>
